<svg width="79" height="14" viewBox="0 0 79 14" fill="none" xmlns="http://www.w3.org/2000/svg">
<g clip-path="url(#clip0_1100_891)">
<path d="M7.74525 10.6055L7.5 10.4674L7.25475 10.6055L3.63071 12.6453L4.57642 8.85073L4.6535 8.54147L4.40569 8.34105L1.28779 5.81937L5.43318 5.48739L5.72674 5.46388L5.84852 5.19573L7.5 1.55927L9.15151 5.19574L9.27329 5.46388L9.56685 5.48739L13.7122 5.81937L10.5943 8.34105L10.3465 8.54147L10.4236 8.85073L11.3693 12.6453L7.74525 10.6055Z" stroke="white"/>
</g>
<g clip-path="url(#clip1_1100_891)">
<path d="M23.7453 10.6055L23.5 10.4674L23.2547 10.6055L19.6307 12.6453L20.5764 8.85073L20.6535 8.54147L20.4057 8.34105L17.2878 5.81937L21.4332 5.48739L21.7267 5.46388L21.8485 5.19573L23.5 1.55927L25.1515 5.19574L25.2733 5.46388L25.5669 5.48739L29.7122 5.81937L26.5943 8.34105L26.3465 8.54147L26.4236 8.85073L27.3693 12.6453L23.7453 10.6055Z" stroke="white"/>
</g>
<g clip-path="url(#clip2_1100_891)">
<path d="M39.7453 10.6055L39.5 10.4674L39.2547 10.6055L35.6307 12.6453L36.5764 8.85073L36.6535 8.54147L36.4057 8.34105L33.2878 5.81937L37.4332 5.48739L37.7267 5.46388L37.8485 5.19573L39.5 1.55927L41.1515 5.19574L41.2733 5.46388L41.5669 5.48739L45.7122 5.81937L42.5943 8.34105L42.3465 8.54147L42.4236 8.85073L43.3693 12.6453L39.7453 10.6055Z" stroke="white"/>
</g>
<g clip-path="url(#clip3_1100_891)">
<path d="M55.7453 10.6055L55.5 10.4674L55.2547 10.6055L51.6307 12.6453L52.5764 8.85073L52.6535 8.54147L52.4057 8.34105L49.2878 5.81937L53.4332 5.48739L53.7267 5.46388L53.8485 5.19573L55.5 1.55927L57.1515 5.19574L57.2733 5.46388L57.5669 5.48739L61.7122 5.81937L58.5943 8.34105L58.3465 8.54147L58.4236 8.85073L59.3693 12.6453L55.7453 10.6055Z" stroke="white"/>
</g>
<g clip-path="url(#clip4_1100_891)">
<path d="M71.7453 10.6055L71.5 10.4674L71.2547 10.6055L67.6307 12.6453L68.5764 8.85073L68.6535 8.54147L68.4057 8.34105L65.2878 5.81937L69.4332 5.48739L69.7267 5.46388L69.8485 5.19573L71.5 1.55927L73.1515 5.19574L73.2733 5.46388L73.5669 5.48739L77.7122 5.81937L74.5943 8.34105L74.3465 8.54147L74.4236 8.85073L75.3693 12.6453L71.7453 10.6055Z" stroke="white"/>
</g>
<defs>
<clipPath id="clip0_1100_891">
<rect width="15" height="14" fill="white"/>
</clipPath>
<clipPath id="clip1_1100_891">
<rect width="15" height="14" fill="white" transform="translate(16)"/>
</clipPath>
<clipPath id="clip2_1100_891">
<rect width="15" height="14" fill="white" transform="translate(32)"/>
</clipPath>
<clipPath id="clip3_1100_891">
<rect width="15" height="14" fill="white" transform="translate(48)"/>
</clipPath>
<clipPath id="clip4_1100_891">
<rect width="15" height="14" fill="white" transform="translate(64)"/>
</clipPath>
</defs>
</svg>
