<svg xmlns="http://www.w3.org/2000/svg" xmlns:xlink="http://www.w3.org/1999/xlink"><defs>
    <linearGradient id="paint0_linear_82_466" x1="19.774" y1="3.00672e-05" x2="105.785" y2="10.6444" gradientUnits="userSpaceOnUse">
      <stop stop-color="#ED0233"/>
      <stop offset="1" stop-color="#003EB7"/>
    </linearGradient>
    <linearGradient id="paint1_linear_82_466" x1="28.2373" y1="14" x2="90.1653" y2="21.664" gradientUnits="userSpaceOnUse">
      <stop stop-color="#ED0233"/>
      <stop offset="1" stop-color="#003EB7"/>
    </linearGradient>
  </defs><symbol id="icon-accordion-close" viewBox="0 0 42 42"><g fill="defaultColor" stroke="defaultColor">
<circle cx="21" cy="21" r="20.5"/>
<path d="M30 21H21H12"/>
</g></symbol><symbol id="icon-accordion-open" viewBox="0 0 42 42"><g fill="defaultColor" stroke="defaultColor">
<circle cx="21" cy="21" r="20.5"/>
<path d="M21 12V21M21 30V21M21 21H30M21 21H12"/>
</g></symbol><symbol id="icon-arrow" viewBox="0 0 18 34"><g fill="defaultColor">
  <path d="M17 1L0.999999 17L17 33"/>
</g></symbol><symbol id="icon-close" viewBox="0 0 20 20"><g fill="none"><path d="M.293 18.291a1 1 0 101.414 1.414L10 11.413l8.292 8.292a1 1 0 101.414-1.414l-8.292-8.292 8.292-8.292A1 1 0 1018.291.293L9.999 8.585 1.707.293A1 1 0 10.293 1.707L8.585 10 .293 18.291z"/></g></symbol><symbol id="icon-logo" viewBox="0 0 86 17"><g fill="none">
<path d="M4.888 16.182C4.03867 16.182 3.302 16.052 2.678 15.792C2.054 15.532 1.57733 15.0727 1.248 14.414C0.936 13.7553 0.78 12.828 0.78 11.632V10.748C1.196 10.748 1.62067 10.748 2.054 10.748C2.48733 10.748 2.912 10.748 3.328 10.748V11.84C3.328 12.568 3.39733 13.1313 3.536 13.53C3.67467 13.9287 3.86533 14.206 4.108 14.362C4.35067 14.5007 4.628 14.57 4.94 14.57C5.44267 14.57 5.84133 14.4053 6.136 14.076C6.448 13.7293 6.604 13.088 6.604 12.152C6.604 11.4587 6.5 10.9387 6.292 10.592C6.084 10.2453 5.75467 9.968 5.304 9.76C4.87067 9.53467 4.30733 9.28333 3.614 9.006C3.042 8.746 2.548 8.44267 2.132 8.096C1.716 7.74933 1.404 7.30733 1.196 6.77C0.988 6.23267 0.884 5.56533 0.884 4.768C0.884 3.79733 1.00533 3.00867 1.248 2.402C1.508 1.778 1.94133 1.32733 2.548 1.05C3.15467 0.755333 3.96933 0.608 4.992 0.608C6.30933 0.608 7.31467 0.911333 8.008 1.518C8.70133 2.10733 9.048 2.974 9.048 4.118V5.912C8.64933 5.912 8.242 5.912 7.826 5.912C7.42733 5.912 7.02 5.912 6.604 5.912V4.846C6.604 4.04867 6.474 3.47667 6.214 3.13C5.97133 2.766 5.57267 2.584 5.018 2.584C4.446 2.584 4.03 2.75733 3.77 3.104C3.52733 3.43333 3.406 3.962 3.406 4.69C3.406 5.314 3.52733 5.79933 3.77 6.146C4.01267 6.47533 4.32467 6.73533 4.706 6.926C5.10467 7.11667 5.512 7.29 5.928 7.446C6.708 7.74067 7.34067 8.044 7.826 8.356C8.31133 8.668 8.66667 9.084 8.892 9.604C9.11733 10.124 9.23 10.8607 9.23 11.814C9.23 12.906 9.048 13.7727 8.684 14.414C8.33733 15.038 7.83467 15.4887 7.176 15.766C6.53467 16.0433 5.772 16.182 4.888 16.182ZM15.8285 16.312C15.2392 16.312 14.6932 16.2687 14.1905 16.182C13.6878 16.0953 13.2545 15.922 12.8905 15.662C12.5265 15.402 12.2405 15.012 12.0325 14.492C11.8245 13.972 11.7205 13.27 11.7205 12.386V0.633999H14.2165V13.036C14.2165 13.504 14.2858 13.868 14.4245 14.128C14.5805 14.3707 14.7798 14.5353 15.0225 14.622C15.2652 14.7087 15.5338 14.752 15.8285 14.752C16.1232 14.752 16.3918 14.7087 16.6345 14.622C16.8772 14.5353 17.0678 14.3707 17.2065 14.128C17.3625 13.868 17.4405 13.504 17.4405 13.036V0.633999H19.9105V12.36C19.9105 13.244 19.8065 13.9547 19.5985 14.492C19.4078 15.012 19.1305 15.402 18.7665 15.662C18.4025 15.922 17.9692 16.0953 17.4665 16.182C16.9638 16.2687 16.4178 16.312 15.8285 16.312ZM22.9826 16V0.633999H28.1826C29.1532 0.633999 29.8986 0.850666 30.4186 1.284C30.9386 1.71733 31.1986 2.35867 31.1986 3.208V5.938C31.1986 6.59667 31.1119 7.212 30.9386 7.784C30.7826 8.33867 30.4706 8.78933 30.0026 9.136C29.5519 9.48267 28.8932 9.656 28.0266 9.656H25.5826V16H22.9826ZM25.5826 8.252H27.1686C27.6886 8.252 28.0786 8.05267 28.3386 7.654C28.5986 7.238 28.7286 6.57067 28.7286 5.652V4.274C28.7286 3.45933 28.6159 2.87867 28.3906 2.532C28.1652 2.18533 27.8532 2.012 27.4546 2.012H25.5826V8.252ZM33.6588 16V0.633999H40.5748V2.402H36.2588V7.056H39.8208V9.006H36.2588V14.284H40.5748V16H33.6588ZM42.9386 16V0.633999H48.2426C49.2133 0.633999 49.9586 0.850666 50.4786 1.284C51.0159 1.71733 51.2846 2.35867 51.2846 3.208V5.652C51.2846 6.50133 51.0506 7.19467 50.5826 7.732C50.1146 8.252 49.4213 8.538 48.5026 8.59C49.0919 8.642 49.5079 8.83267 49.7506 9.162C50.0106 9.49133 50.2446 10.0027 50.4526 10.696L51.9346 16H49.1786L47.9566 10.878C47.8353 10.4447 47.6966 10.0633 47.5406 9.734C47.3846 9.40467 47.1333 9.24 46.7866 9.24H45.5126V16H42.9386ZM45.5126 7.498H47.1766C47.7833 7.498 48.2079 7.342 48.4506 7.03C48.7106 6.718 48.8406 6.24133 48.8406 5.6V3.65C48.8406 3.078 48.7193 2.662 48.4766 2.402C48.2513 2.142 47.8959 2.012 47.4106 2.012H45.5126V7.498ZM57.4984 16.286C56.9091 16.286 56.3544 16.1907 55.8344 16C55.3144 15.8267 54.8897 15.4713 54.5604 14.934C54.2484 14.3793 54.0924 13.556 54.0924 12.464V3.884C54.0924 2.948 54.2657 2.23733 54.6124 1.752C54.9591 1.24933 55.4444 0.911333 56.0684 0.738C56.6924 0.547332 57.4117 0.451999 58.2264 0.451999C59.0411 0.451999 59.7604 0.547332 60.3844 0.738C61.0084 0.928666 61.4937 1.27533 61.8404 1.778C62.2044 2.26333 62.3864 2.96533 62.3864 3.884V5.964H59.9684V3.78C59.9684 3.26 59.8904 2.87 59.7344 2.61C59.5957 2.35 59.3964 2.17667 59.1364 2.09C58.8937 2.00333 58.5991 1.96 58.2524 1.96C57.9404 1.96 57.6544 2.00333 57.3944 2.09C57.1344 2.17667 56.9264 2.35 56.7704 2.61C56.6317 2.87 56.5624 3.26 56.5624 3.78V13.01C56.5624 13.53 56.6317 13.92 56.7704 14.18C56.9264 14.44 57.1344 14.6133 57.3944 14.7C57.6544 14.7867 57.9404 14.83 58.2524 14.83C58.7551 14.83 59.1624 14.6827 59.4744 14.388C59.8037 14.076 59.9684 13.6167 59.9684 13.01V9.89H58.4344V8.46H62.3864V16H60.5144L60.3844 14.7C60.3497 14.7693 60.3064 14.8473 60.2544 14.934C60.2024 15.0033 60.1591 15.064 60.1244 15.116C59.9164 15.428 59.6044 15.7053 59.1884 15.948C58.7897 16.1733 58.2264 16.286 57.4984 16.286ZM67.1025 16V9.396L64.2425 0.633999H66.7125L68.3245 5.886L68.4545 6.692L68.6105 5.886L70.3005 0.633999H72.6145L69.5985 9.526V16H67.1025ZM74.7134 16V0.633999H77.7814L80.3554 11.554L82.9554 0.633999H85.9974V16H83.7874V4.144L81.2134 16H79.4974L76.9234 4.144V16H74.7134Z" fill="white"/>
</g></symbol><symbol id="icon-ok" viewBox="0 0 22 22"><g fill="defaultColor">
<path d="M11 3.32798C12.3229 3.32798 13.3988 4.38262 13.3988 5.67944C13.3988 6.97235 12.3229 8.02699 11 8.02699C9.67708 8.02699 8.60121 6.97235 8.60121 5.67944C8.60121 4.38262 9.67708 3.32798 11 3.32798ZM11 11.355C14.1957 11.355 16.7938 8.8082 16.7938 5.67944C16.7938 2.54676 14.1957 0 11 0C7.80427 0 5.21023 2.54676 5.21023 5.67944C5.21023 8.8082 7.80427 11.355 11 11.355ZM13.343 15.9876C14.5225 15.722 15.6581 15.2649 16.7061 14.6204C17.499 14.1322 17.7381 13.1049 17.24 12.3276C16.738 11.5464 15.694 11.312 14.897 11.8042C12.5261 13.265 9.47386 13.265 7.09898 11.8042C6.30603 11.312 5.25805 11.5464 4.75996 12.3276C4.26188 13.1049 4.50096 14.1322 5.29391 14.6204C6.34189 15.2649 7.47753 15.722 8.657 15.9876L5.41744 19.1593C4.75598 19.8077 4.75598 20.8624 5.41744 21.5108C5.75215 21.835 6.1825 21.999 6.61683 21.999C7.05116 21.999 7.4855 21.835 7.82021 21.5108L11 18.3937L14.1838 21.5108C14.8452 22.1631 15.9171 22.1631 16.5826 21.5108C17.244 20.8624 17.244 19.8077 16.5826 19.1593L13.343 15.9876Z"/>
</g></symbol><symbol id="icon-reddit" viewBox="0 0 22 22"><g fill="defaultColor">
<path d="M12.9453 0.5C12.304 0.5 11.7021 0.84161 11.3161 1.33425C10.9301 1.82688 10.7173 2.4274 10.5623 3.06027C10.3161 4.07791 10.2401 5.20702 10.2219 6.22466C8.41944 6.35051 6.78722 6.91147 5.43159 7.77808C4.88143 7.29264 4.21882 7.02295 3.58356 7.03014C2.86015 7.03733 2.17322 7.36455 1.66258 8.03699C0.686888 9.32072 0.799351 11.4207 1.93005 12.6685C1.86015 13.0533 1.80847 13.4488 1.80847 13.8479C1.80847 18.0767 5.92399 21.5 11 21.5C16.076 21.5 20.1915 18.0731 20.1915 13.8479C20.1915 13.4488 20.1399 13.0533 20.0699 12.6685C21.2006 11.4207 21.3131 9.32072 20.3374 8.03699C19.8268 7.36455 19.1399 7.03733 18.4164 7.03014C17.7812 7.02295 17.1186 7.29264 16.5684 7.77808C15.2189 6.91507 13.5958 6.35411 11.8024 6.22466C11.8268 5.28613 11.8906 4.31164 12.0699 3.57808C12.1824 3.11781 12.3161 2.78339 12.459 2.6C12.6018 2.41661 12.7052 2.3411 12.9453 2.3411C13.4651 2.3411 13.5319 2.51729 13.845 2.94521C14.0031 3.16096 14.1854 3.43065 14.4772 3.69315C14.769 3.95565 15.2006 4.18219 15.6687 4.18219V2.3411C15.538 2.3411 15.5137 2.3375 15.4256 2.25479C15.3374 2.17209 15.2158 1.98151 15.0365 1.73699C14.6778 1.24435 13.9818 0.5 12.9453 0.5ZM18.0031 0.672603C16.7933 0.672603 15.8146 1.83048 15.8146 3.26164C15.8146 4.69281 16.7933 5.85069 18.0031 5.85069C19.2128 5.85069 20.1915 4.69281 20.1915 3.26164C20.1915 1.83048 19.2128 0.672603 18.0031 0.672603ZM18.0031 1.59315C18.7812 1.59315 19.4134 2.3411 19.4134 3.26164C19.4134 4.18219 18.7812 4.93014 18.0031 4.93014C17.225 4.93014 16.5927 4.18219 16.5927 3.26164C16.5927 2.3411 17.225 1.59315 18.0031 1.59315ZM11 7.66301C15.307 7.66301 18.9514 10.5002 18.9514 13.8479C18.9514 17.1993 15.307 20.0329 11 20.0329C6.69299 20.0329 3.0486 17.1993 3.0486 13.8479C3.0486 10.5002 6.69299 7.66301 11 7.66301ZM3.60787 8.49726C3.82368 8.50086 4.0486 8.55839 4.26441 8.66986C3.48325 9.37106 2.86319 10.1765 2.44069 11.0863C2.1489 10.3743 2.22793 9.48613 2.58659 9.01507C2.84799 8.66986 3.20969 8.49366 3.60787 8.49726ZM18.3921 8.49726C18.7903 8.49366 19.152 8.66986 19.4134 9.01507C19.7721 9.48613 19.8511 10.3743 19.5593 11.0863C19.1368 10.1765 18.5167 9.37106 17.7356 8.66986C17.9514 8.55839 18.1763 8.50086 18.3921 8.49726ZM7.88753 10.7986C7.10941 10.7986 6.47719 11.5466 6.47719 12.4671C6.47719 13.3877 7.10941 14.1356 7.88753 14.1356C8.66564 14.1356 9.29786 13.3877 9.29786 12.4671C9.29786 11.5466 8.66564 10.7986 7.88753 10.7986ZM14.1125 10.7986C13.3344 10.7986 12.7021 11.5466 12.7021 12.4671C12.7021 13.3877 13.3344 14.1356 14.1125 14.1356C14.8906 14.1356 15.5228 13.3877 15.5228 12.4671C15.5228 11.5466 14.8906 10.7986 14.1125 10.7986ZM7.13372 16.4658C7.62917 17.6776 9.16109 18.8534 11 18.8534C12.8389 18.8534 14.3952 17.6776 14.8906 16.4658C13.9909 17.1526 12.5714 17.6164 11 17.6164C9.42857 17.6164 8.03342 17.1526 7.13372 16.4658Z"/>
</g></symbol><symbol id="icon-rouble" viewBox="0 0 30 42"><g fill="none">
<path fill-rule="evenodd" clip-rule="evenodd" d="M0 17H6V23H0V17Z" fill="#102654"/>
<path fill-rule="evenodd" clip-rule="evenodd" d="M3.65854 28.3214V18H9.65854V28.3214H21V34.3214H9.65854V42H3.65854V34.3214H0V28.3214H3.65854Z" fill="#102654"/>
<path fill-rule="evenodd" clip-rule="evenodd" d="M18.5 6H10V17H18.5C21.5376 17 24 14.5376 24 11.5C24 8.46243 21.5376 6 18.5 6ZM4 0V23H18.5C24.8513 23 30 17.8513 30 11.5C30 5.14873 24.8513 0 18.5 0H4Z" fill="#102654"/>
</g></symbol><symbol id="icon-video-play-active" viewBox="0 0 100 100"><g fill="none">
  <circle cx="50" cy="50" r="49" stroke="#102654" stroke-width="2"/>
  <circle cx="50" cy="50" r="29" fill="white"/>
  <path d="M59 49.5L46.25 56.8612L46.25 42.1388L59 49.5Z" fill="#102654"/>
</g></symbol><symbol id="icon-video-play-hover" viewBox="0 0 100 100"><g fill="none">
  <circle cx="50" cy="50" r="49" stroke="#102654" stroke-width="2"/>
  <circle cx="50" cy="50" r="36" fill="white"/>
  <path d="M59 49.5L46.25 56.8612L46.25 42.1388L59 49.5Z" fill="#102654"/>
</g></symbol><symbol id="icon-video-play" viewBox="0 0 100 100"><g fill="none">
  <circle opacity="0.2" cx="50" cy="50" r="49" stroke="url(#paint0_linear_82_466)" stroke-width="2"/>
  <circle cx="50" cy="50" r="36" fill="url(#paint1_linear_82_466)"/>
  <path d="M59 49.5L46.25 56.8612L46.25 42.1388L59 49.5Z" fill="white"/>
  
</g></symbol><symbol id="icon-vk" viewBox="0 0 22 22"><g fill="defaultColor">
<path d="M21.8039 15.7032C21.7448 15.6086 21.379 14.8488 19.6189 13.2871C17.7762 11.6518 18.0238 11.9173 20.2432 9.0897C21.5949 7.36763 22.1353 6.31598 21.9662 5.86641C21.8053 5.43786 20.8111 5.55091 20.8111 5.55091L17.5053 5.56932C17.5053 5.56932 17.2606 5.53777 17.0777 5.64162C16.9003 5.74415 16.7862 5.98077 16.7862 5.98077C16.7862 5.98077 16.2623 7.31373 15.5637 8.44688C14.091 10.8381 13.501 10.9643 13.2604 10.8157C12.7007 10.47 12.841 9.42491 12.841 8.6835C12.841 6.36594 13.2082 5.39974 12.1246 5.14997C11.7643 5.06715 11.5003 5.01194 10.5803 5.00274C9.4005 4.99091 8.4008 5.00668 7.83563 5.27091C7.45885 5.44706 7.16871 5.84011 7.3461 5.86246C7.56474 5.89007 8.05977 5.98997 8.32242 6.33176C8.66207 6.77214 8.64969 7.76331 8.64969 7.76331C8.64969 7.76331 8.84496 10.491 8.19453 10.8302C7.74763 11.0629 7.13571 10.5883 5.82248 8.41796C5.15006 7.30716 4.64127 6.07805 4.64127 6.07805C4.64127 6.07805 4.54364 5.84932 4.369 5.72706C4.15724 5.57852 3.86022 5.53119 3.86022 5.53119L0.716735 5.5496C0.716735 5.5496 0.245075 5.56274 0.0718122 5.75861C-0.0821991 5.93345 0.0594363 6.29364 0.0594363 6.29364C0.0594363 6.29364 2.52087 11.7977 5.30682 14.5727C7.86313 17.1164 10.7646 16.9494 10.7646 16.9494H12.0792C12.0792 16.9494 12.4766 16.9074 12.6787 16.6984C12.8658 16.5064 12.8589 16.1463 12.8589 16.1463C12.8589 16.1463 12.8327 14.4597 13.6523 14.2112C14.4595 13.9667 15.4963 15.8413 16.595 16.563C17.4256 17.1085 18.0568 16.9889 18.0568 16.9889L20.9953 16.9494C20.9953 16.9494 22.5327 16.8587 21.8039 15.7032Z"/>
</g></symbol></svg>